<?xml version="1.0" encoding="UTF-8" standalone="no"?>
<svg
   xmlns:dc="http://purl.org/dc/elements/1.1/"
   xmlns:cc="http://creativecommons.org/ns#"
   xmlns:rdf="http://www.w3.org/1999/02/22-rdf-syntax-ns#"
   xmlns:svg="http://www.w3.org/2000/svg"
   xmlns="http://www.w3.org/2000/svg"
   xmlns:sodipodi="http://sodipodi.sourceforge.net/DTD/sodipodi-0.dtd"
   xmlns:inkscape="http://www.inkscape.org/namespaces/inkscape"
   height="24"
   viewBox="0 0 24 24"
   width="24"
   version="1.1"
   id="svg6"
   sodipodi:docname="notification.svg"
   inkscape:version="0.92.4 (5da689c313, 2019-01-14)">
  <metadata
     id="metadata12">
    <rdf:RDF>
      <cc:Work
         rdf:about="">
        <dc:format>image/svg+xml</dc:format>
        <dc:type
           rdf:resource="http://purl.org/dc/dcmitype/StillImage" />
      </cc:Work>
    </rdf:RDF>
  </metadata>
  <defs
     id="defs10" />
  <sodipodi:namedview
     pagecolor="#ffffff"
     bordercolor="#666666"
     borderopacity="1"
     objecttolerance="10"
     gridtolerance="10"
     guidetolerance="10"
     inkscape:pageopacity="0"
     inkscape:pageshadow="2"
     inkscape:window-width="1700"
     inkscape:window-height="749"
     id="namedview8"
     showgrid="false"
     inkscape:zoom="13.906433"
     inkscape:cx="7.7026232"
     inkscape:cy="12.299956"
     inkscape:window-x="0"
     inkscape:window-y="34"
     inkscape:window-maximized="0"
     inkscape:current-layer="svg6" />
  <path
     inkscape:connector-curvature="0"
     d="M 12,1.9999999 C 6.48,1.9999999 2,6.4800001 2,12 2,17.52 6.48,22 12,22 17.52,22 22,17.52 22,12 22,6.4800001 17.52,1.9999999 12,1.9999999 Z"
     id="path4-3"
     sodipodi:nodetypes="sssss" />
  <path
     d="m 16.738824,14.961764 v -3.94902 c 0,-2.4246968 -1.295279,-4.454493 -3.554118,-4.9915598 V 5.4841175 c 0,-0.6555373 -0.529169,-1.184706 -1.184706,-1.184706 -0.655538,0 -1.184706,0.5291687 -1.184706,1.184706 V 6.0211842 C 8.5485565,6.558251 7.261176,8.5801492 7.261176,11.012744 v 3.94902 l -1.579608,1.579608 v 0.789804 h 12.636864 v -0.789804 z m -3.94902,0 h -1.579608 v -1.579608 h 1.579608 z m 0,-3.159214 H 11.210196 V 8.6433335 h 1.579608 z M 12,19.700588 c 0.868785,0 1.579608,-0.710823 1.579608,-1.579608 h -3.159216 c 0,0.868785 0.702926,1.579608 1.579608,1.579608 z"
     id="path2"
     inkscape:connector-curvature="0"
     style="fill:#ffffff;stroke-width:0.78980398" />
  <path
     d="M0 0h24v24H0V0z"
     fill="none"
     id="path4" />
  <path
     id="path828"
     d="m 50.338983,16 v -5 c 0,-3.07 -1.64,-5.64 -4.5,-6.32 V 4 c 0,-0.83 -0.67,-1.5 -1.5,-1.5 -0.83,0 -1.5,0.67 -1.5,1.5 v 0.68 c -2.87,0.68 -4.5,3.24 -4.5,6.32 v 5 l -2,2 v 1 h 16 v -1 z m -5,0 h -2 v -2 h 2 z m 0,-4 h -2 V 8 h 2 z m -1,10 c 1.1,0 2,-0.9 2,-2 h -4 c 0,1.1 0.89,2 2,2 z"
     inkscape:connector-curvature="0" />
</svg>
