<?xml version="1.0" encoding="UTF-8" standalone="no"?>
<svg
   xmlns:dc="http://purl.org/dc/elements/1.1/"
   xmlns:cc="http://creativecommons.org/ns#"
   xmlns:rdf="http://www.w3.org/1999/02/22-rdf-syntax-ns#"
   xmlns:svg="http://www.w3.org/2000/svg"
   xmlns="http://www.w3.org/2000/svg"
   xmlns:sodipodi="http://sodipodi.sourceforge.net/DTD/sodipodi-0.dtd"
   xmlns:inkscape="http://www.inkscape.org/namespaces/inkscape"
   height="32"
   viewBox="0 0 32 32"
   width="32"
   version="1.1"
   id="svg6"
   sodipodi:docname="assignment-24px.svg"
   inkscape:version="0.92.4 (5da689c313, 2019-01-14)">
  <metadata
     id="metadata12">
    <rdf:RDF>
      <cc:Work
         rdf:about="">
        <dc:format>image/svg+xml</dc:format>
        <dc:type
           rdf:resource="http://purl.org/dc/dcmitype/StillImage" />
        <dc:title></dc:title>
      </cc:Work>
    </rdf:RDF>
  </metadata>
  <defs
     id="defs10" />
  <sodipodi:namedview
     pagecolor="#ffffff"
     bordercolor="#666666"
     borderopacity="1"
     objecttolerance="10"
     gridtolerance="10"
     guidetolerance="10"
     inkscape:pageopacity="0"
     inkscape:pageshadow="2"
     inkscape:window-width="1514"
     inkscape:window-height="1016"
     id="namedview8"
     showgrid="false"
     inkscape:zoom="11.313708"
     inkscape:cx="0.069743184"
     inkscape:cy="-12.664623"
     inkscape:window-x="0"
     inkscape:window-y="34"
     inkscape:window-maximized="0"
     inkscape:current-layer="svg6" />
  <path
     style="fill:#f6f6f6;fill-opacity:1;stroke:none;stroke-width:1px;stroke-linecap:butt;stroke-linejoin:miter;stroke-opacity:1"
     d="m 3.8828057,5.212049 0,25.147024 H 28.499499 V 5.3888257 H 18.73833 V 2.3015151 l -5.672939,0 V 5.212049 Z"
     id="path878"
     inkscape:connector-curvature="0"
     sodipodi:nodetypes="ccccccccc" />
  <path
     d="M 26.888888,3.2 H 20.386666 C 19.733333,1.344 18.022222,0 16,0 13.977778,0 12.266667,1.344 11.613333,3.2 H 5.1111112 C 3.4,3.2 2,4.64 2,6.4 V 28.8 C 2,30.56 3.4,32 5.1111112,32 H 26.888888 C 28.6,32 30,30.56 30,28.8 V 6.4 C 30,4.64 28.6,3.2 26.888888,3.2 Z M 16,3.2 c 0.855556,0 1.555556,0.72 1.555556,1.6 0,0.88 -0.7,1.6 -1.555556,1.6 -0.855556,0 -1.555556,-0.72 -1.555556,-1.6 0,-0.88 0.7,-1.6 1.555556,-1.6 z M 12,26 H 6 v -2 h 6 z m 2,-6 H 6 v -2 h 8 z m 8,-6 H 6 v -2 h 16 z"
     id="path4"
     inkscape:connector-curvature="0"
     sodipodi:nodetypes="scscsssssssssssssccccccccccccccc"
     style="fill:#3465a4;fill-opacity:1;stroke-width:1.57762134" />
  <circle
     style="opacity:1;fill:#ffffff;fill-opacity:1;stroke:none;stroke-width:2.77238202;stroke-linecap:square;stroke-linejoin:round;stroke-miterlimit:4;stroke-dasharray:none;stroke-dashoffset:0;stroke-opacity:1;paint-order:stroke fill markers"
     id="path844"
     cx="21.611425"
     cy="23.400459"
     r="6" />
  <path
     inkscape:connector-curvature="0"
     d="m 22.12391,19.260544 h -1.055752 v 4.886496 l 3.319876,2.029408 0.527874,-0.865714 -2.791998,-1.691566 z"
     id="path826"
     style="fill:#424242;fill-opacity:1;stroke-width:0.70383269"
     sodipodi:nodetypes="ccccccc" />
</svg>
